<svg width="24" height="25" viewBox="0 0 24 25" fill="none" xmlns="http://www.w3.org/2000/svg">
<path fill-rule="evenodd" clip-rule="evenodd" d="M2 12.702C2 7.13496 6.51297 2.62199 12.08 2.62199C12.8206 2.61827 13.5591 2.70219 14.28 2.87199C11.4268 3.68891 9.55951 6.42135 9.83498 9.37634C10.1104 12.3313 12.4507 14.6715 15.4057 14.947C18.3606 15.2225 21.0931 13.3551 21.91 10.502C22.0798 11.2229 22.1637 11.9614 22.16 12.702C22.16 18.269 17.647 22.782 12.08 22.782C6.51297 22.782 2 18.269 2 12.702ZM10.543 14.2382C7.92799 11.6257 7.54836 7.51968 9.64 4.47199C5.70314 5.64125 3.14688 9.43628 3.54276 13.524C3.93865 17.6117 7.17565 20.8457 11.2637 21.2377C15.3518 21.6298 19.1444 19.07 20.31 15.132C17.2643 17.2265 13.1579 16.8507 10.543 14.2382Z" fill="black"/>
</svg>
