<svg><defs><path d="M13.125 0a7.292 7.292 0 0 1 7.292 7.292v2.916h4.375a1.459 1.459 0 0 1 1.458 1.459v17.5a1.458 1.458 0 0 1-1.458 1.458H1.458A1.458 1.458 0 0 1 0 29.167v-17.5a1.458 1.458 0 0 1 1.458-1.459h4.375V7.292A7.292 7.292 0 0 1 13.125 0zm7.292 14.583H17.5v1.459a1.458 1.458 0 0 0 2.907.17l.01-.17v-1.459zm-11.667 0H5.833v1.459a1.458 1.458 0 0 0 2.907.17l.01-.17v-1.459zm4.375-11.666a4.375 4.375 0 0 0-4.368 4.118l-.007.257v2.916h8.75V7.292a4.375 4.375 0 0 0-4.118-4.368l-.257-.007z" fill="currentColor" id="bag-svg" xmlns="http://www.w3.org/2000/svg"/><path d="M20.33 3.67a1.45 1.45 0 0 0-1.47-.35L4.23 8.2A1.44 1.44 0 0 0 4 10.85l6.07 3 3 6.09a1.44 1.44 0 0 0 1.29.79h.1a1.43 1.43 0 0 0 1.26-1l4.95-14.59a1.41 1.41 0 0 0-.34-1.47zM4.85 9.58l12.77-4.26-7.09 7.09-5.68-2.83zm9.58 9.57-2.84-5.68 7.09-7.09-4.25 12.77z" fill="currentColor" id="prime_send-svg" xmlns="http://www.w3.org/2000/svg"/><path d="m6.913 7.998.837 3.565-.837 3.55 3.115 1.922 1.907 3.115 3.565-.837 3.565.837 1.906-3.115 3.116-1.922-.837-3.55.837-3.565-3.1-1.922-1.922-3.115-3.565.852-3.55-.837-1.937 3.1-3.1 1.922zm8.602 9.827a6.2 6.2 0 0 1 0-12.4A6.192 6.192 0 0 1 21.7 11.61c0 3.44-2.775 6.215-6.185 6.215zm-.03-1.55a4.63 4.63 0 0 1-4.635-4.65c0-2.557 2.061-4.65 4.634-4.65 2.573 0 4.666 2.093 4.666 4.65 0 2.573-2.093 4.65-4.666 4.65zm5.951 1.705-1.984 3.472-3.224-.729 3.922 9.037 2.17-3.41h3.875l-4.759-8.37zm-11.935.108 1.938 3.488 3.301-.79-3.89 8.974-2.17-3.41H4.805L9.5 18.088z" fill="currentColor" id="award-svg" xmlns="http://www.w3.org/2000/svg"/><path d="M8.831 4.257a5.854 5.854 0 0 0-1.268 3.618.906.906 0 0 1-.907.906c-3.284 0-4.531 2.291-4.531 3.625 0 .774.196 1.664.796 2.35.578.659 1.658 1.275 3.735 1.275h.907c0 .618.056 1.226.163 1.813h-1.07c-2.454 0-4.092-.743-5.1-1.896C.57 14.82.312 13.445.312 12.406c0-2.135 1.75-5.011 5.489-5.394A7.612 7.612 0 0 1 7.428 3.11C8.62 1.653 10.463.625 13 .625c1.54 0 3.337.508 4.767 1.678 1.156.946 2.044 2.308 2.358 4.1a9.943 9.943 0 0 0-1.932-.319 4.781 4.781 0 0 0-1.577-2.38A5.854 5.854 0 0 0 13 2.437c-1.994 0-3.322.785-4.169 1.82zm16.857 11.774a8.156 8.156 0 1 1-16.313 0 8.156 8.156 0 0 1 16.313 0zm-3.89-3.36a.907.907 0 0 0-1.283 0l-4.796 4.798-1.171-1.173a.907.907 0 0 0-1.283 1.283l1.812 1.813a.907.907 0 0 0 1.283 0l5.438-5.438a.907.907 0 0 0 0-1.283z" fill="currentColor" id="cloud-svg" xmlns="http://www.w3.org/2000/svg"/><path d="M10 0C4.486 0 0 4.486 0 10v4.143C0 15.167.897 16 2 16h1a1 1 0 0 0 1-1V9.857a1 1 0 0 0-1-1h-.908C2.648 4.987 5.978 2 10 2s7.352 2.987 7.908 6.857H17a1 1 0 0 0-1 1V16c0 1.103-.897 2-2 2h-2v-1H8v3h6c2.206 0 4-1.794 4-4 1.103 0 2-.833 2-1.857V10c0-5.514-4.486-10-10-10z" fill="currentColor" id="hear-phone-svg" xmlns="http://www.w3.org/2000/svg"/><path d="M12 2a15.3 15.3 0 0 1 4 10 15.3 15.3 0 0 1-4 10m0-20a15.3 15.3 0 0 0-4 10 15.3 15.3 0 0 0 4 10m0-20C6.477 2 2 6.477 2 12s4.477 10 10 10m0-20c5.523 0 10 4.477 10 10s-4.477 10-10 10M2.5 9h19m-19 6h19" stroke="currentColor" stroke-width="2" stroke-linecap="round" stroke-linejoin="round" id="web" fill="none" xmlns="http://www.w3.org/2000/svg"/><path d="M26.25 25A1.25 1.25 0 0 1 25 26.25H5A1.25 1.25 0 0 1 3.75 25V5A1.25 1.25 0 0 1 5 3.75h20A1.25 1.25 0 0 1 26.25 5v20zM13.75 6.25h-7.5v17.5h7.5V6.25zm10 10h-7.5v7.5h7.5v-7.5zm0-10h-7.5v7.5h7.5v-7.5z" fill="currentColor" id="web-svg" xmlns="http://www.w3.org/2000/svg"/><path fill-rule="evenodd" clip-rule="evenodd" d="m12 11.293 5.646-5.647.708.708L12.707 12l5.647 5.646-.707.708L12 12.707l-5.646 5.647-.708-.707L11.293 12 5.646 6.354l.708-.708L12 11.293z" fill="currentColor" id="close" xmlns="http://www.w3.org/2000/svg"/><path d="m12.333 27.75-9.25-9.25 9.25-9.25 2.197 2.197-7.091 7.091 7.053 7.054-2.159 2.158zm12.334 0-2.197-2.197 7.091-7.091-7.053-7.054 2.159-2.158 9.25 9.25-9.25 9.25z" fill="currentColor" id="code-svg" xmlns="http://www.w3.org/2000/svg"/><path d="m12.99 11.177-1.692-1.722 2.205-2.205H9.455A3.527 3.527 0 0 1 7.25 9.455v10.09c.705.262 1.284.7 1.738 1.313a3.45 3.45 0 0 1 .679 2.1c0 1.007-.353 1.863-1.058 2.568-.704.705-1.56 1.057-2.567 1.057-1.007 0-1.863-.352-2.568-1.057-.705-.705-1.057-1.56-1.057-2.568 0-.785.226-1.485.679-2.1a3.739 3.739 0 0 1 1.737-1.313V9.455a3.736 3.736 0 0 1-1.737-1.314 3.445 3.445 0 0 1-.68-2.1c0-1.006.353-1.862 1.058-2.567.705-.705 1.56-1.057 2.568-1.057a3.45 3.45 0 0 1 2.1.679 3.739 3.739 0 0 1 1.313 1.737h4.048l-2.205-2.205L12.99.906l5.135 5.136-5.135 5.135zm9.968-8.76c1.007 0 1.863.352 2.568 1.057.705.705 1.057 1.56 1.057 2.568 0 1.007-.352 1.863-1.057 2.567-.705.705-1.56 1.058-2.568 1.058-1.006 0-1.862-.353-2.567-1.058-.705-.704-1.058-1.56-1.058-2.567 0-1.007.353-1.863 1.058-2.568.705-.705 1.56-1.057 2.567-1.057zm-4.35 12.566 5.106 5.105-6.495 6.495h-5.136v-5.135l6.525-6.465zm6.405 3.837-5.166-5.166.906-.876a2.37 2.37 0 0 1 1.738-.725c.674 0 1.243.242 1.706.725l1.692 1.722c.463.463.694 1.027.694 1.692 0 .664-.231 1.228-.694 1.691l-.876.937z" fill="currentColor" id="edit-svg" xmlns="http://www.w3.org/2000/svg"/><path d="M27.809 13.096c.48.844.837 1.722 1.072 2.636.234.915.357 1.858.369 2.83v1.811L18 26.016 6.75 20.373c0-.703.006-1.36.018-1.969.011-.61.064-1.2.158-1.775.094-.574.234-1.149.422-1.723a9.164 9.164 0 0 1 .843-1.81L4.5 11.25v10.318c.34.117.645.282.914.492.27.212.51.458.72.739.212.281.364.586.458.914.094.328.146.674.158 1.037v5.625H0V24.75c0-.352.053-.691.158-1.02a3.62 3.62 0 0 1 .457-.931c.2-.293.434-.54.703-.738.27-.2.58-.364.932-.493V10.125L0 9l18-9 18 9-8.191 4.096zM4.5 24.75c0-.305-.111-.568-.334-.791a1.081 1.081 0 0 0-.791-.334c-.305 0-.568.111-.791.334a1.081 1.081 0 0 0-.334.791v3.375H4.5V24.75zM5.027 9 18 15.486 30.973 9 18 2.514 5.027 9zM27 18.984c0-.902-.088-1.74-.264-2.513-.175-.774-.486-1.565-.931-2.373L18 18l-7.805-3.902a8.981 8.981 0 0 0-.879 2.144A9.55 9.55 0 0 0 9 18.562v.422l9 4.5 9-4.5z" fill="currentColor" id="hat-svg" xmlns="http://www.w3.org/2000/svg"/><path fill-rule="evenodd" clip-rule="evenodd" d="m8.146 4.646.708.708L5.707 8.5H14v1H5.707l3.147 3.146-.708.708L3.793 9l4.353-4.354z" fill="currentColor" id="back" xmlns="http://www.w3.org/2000/svg"/><path d="M18.604 27.305c0-.483.056-.951.127-1.42H5.828V11.69l11.356 7.098L28.54 11.69v7.225a8.497 8.497 0 0 1 2.84 1.022V8.851a2.847 2.847 0 0 0-2.84-2.84H5.828a2.847 2.847 0 0 0-2.84 2.84v17.034a2.847 2.847 0 0 0 2.84 2.84H18.73a9.42 9.42 0 0 1-.128-1.42zM28.54 8.85l-11.356 7.097L5.828 8.851H28.54zm-2.839 14.195v2.84h5.678v2.838h-5.678v2.84l-4.259-4.26 4.26-4.258z" fill="currentColor" id="email-svg" xmlns="http://www.w3.org/2000/svg"/><path d="M29.369 7.57a15.134 15.134 0 0 0-10.807-4.486c-8.418 0-15.278 6.86-15.278 15.277 0 2.698.709 5.32 2.035 7.632L3.16 33.917l8.093-2.128a15.282 15.282 0 0 0 7.308 1.866c8.417 0 15.278-6.86 15.278-15.278 0-4.085-1.588-7.924-4.471-10.807zM18.562 31.065c-2.282 0-4.517-.617-6.475-1.773l-.463-.278-4.81 1.265 1.28-4.687-.308-.478a12.74 12.74 0 0 1-1.943-6.753c0-6.999 5.704-12.703 12.703-12.703A12.57 12.57 0 0 1 27.52 9.39a12.616 12.616 0 0 1 3.715 8.988c.031 7-5.673 12.688-12.672 12.688zm6.968-9.497c-.385-.185-2.266-1.11-2.605-1.249-.355-.123-.602-.185-.864.185-.262.386-.986 1.25-1.202 1.496-.216.262-.447.293-.833.092-.385-.185-1.618-.6-3.068-1.896-1.14-1.017-1.896-2.266-2.127-2.652-.216-.385-.03-.585.17-.786.17-.17.385-.447.57-.663.185-.216.262-.385.385-.632.124-.262.062-.478-.03-.663-.093-.185-.864-2.066-1.172-2.836-.309-.74-.632-.648-.864-.663h-.74c-.262 0-.662.092-1.017.478-.34.385-1.326 1.31-1.326 3.19 0 1.882 1.372 3.7 1.557 3.947.185.263 2.698 4.117 6.521 5.766.91.401 1.62.632 2.174.802.91.293 1.742.247 2.405.154.74-.108 2.267-.925 2.575-1.819.324-.894.324-1.65.216-1.82-.108-.169-.34-.246-.725-.43z" fill="currentColor" id="whatsapp-svg" xmlns="http://www.w3.org/2000/svg"/><path fill-rule="evenodd" clip-rule="evenodd" d="m16.177 18.016-3.2-3.325L6.812 18.1l6.758-7.17 3.2 3.325 6.163-3.409-6.757 7.17h.002zM14.874 2.5C8.04 2.5 2.5 7.68 2.5 14.071c0 3.635 1.793 6.879 4.598 9V27.5l4.222-2.343c1.125.316 2.319.485 3.554.485 6.835 0 12.375-5.18 12.375-11.57 0-6.392-5.54-11.572-12.375-11.572z" fill="currentColor" id="messanger-svg" xmlns="http://www.w3.org/2000/svg"/><path fill-rule="evenodd" clip-rule="evenodd" d="m12 1.354 11.317 9.26-.633.773L20 9.192V19.5a2.5 2.5 0 0 1-2.5 2.5h-11A2.5 2.5 0 0 1 4 19.5V9.192l-2.683 2.195-.633-.774L12 1.354zm-7 7.02V19.5A1.5 1.5 0 0 0 6.5 21H9v-6.5a1.5 1.5 0 0 1 1.5-1.5h3a1.5 1.5 0 0 1 1.5 1.5V21h2.5a1.5 1.5 0 0 0 1.5-1.5V8.373l-7-5.727-7 5.727zM14 21v-6.5a.5.5 0 0 0-.5-.5h-3a.5.5 0 0 0-.5.5V21h4z" fill="currentColor" id="home" xmlns="http://www.w3.org/2000/svg"/><g id="calendar" fill="none" xmlns="http://www.w3.org/2000/svg"><g clip-path="url(#clip0_19_186)" fill="currentColor"><path d="M16.125 3H14.5v1H16v11H2V4h1.5V3H1.875A.89.89 0 0 0 1 3.905v11.19a.89.89 0 0 0 .875.905h14.25a.89.89 0 0 0 .875-.905V3.905A.89.89 0 0 0 16.125 3z"/><path d="M4 7h1v1H4V7zM7 7h1v1H7V7zM10 7h1v1h-1V7zM13 7h1v1h-1V7zM4 9.5h1v1H4v-1zM7 9.5h1v1H7v-1zM10 9.5h1v1h-1v-1zM13 9.5h1v1h-1v-1zM4 12h1v1H4v-1zM7 12h1v1H7v-1zM10 12h1v1h-1v-1zM13 12h1v1h-1v-1zM5 5a.5.5 0 0 0 .5-.5v-3a.5.5 0 1 0-1 0v3A.5.5 0 0 0 5 5zM13 5a.5.5 0 0 0 .5-.5v-3a.5.5 0 0 0-1 0v3a.5.5 0 0 0 .5.5zM6.5 3h5v1h-5V3z"/></g><defs><clipPath id="clip0_19_186"><path fill="#fff" d="M0 0h18v18H0z"/></clipPath></defs></g><g id="arrow-down-svg" fill="none" xmlns="http://www.w3.org/2000/svg"><g clip-path="url(#clip0_16_1119)"><path fill-rule="evenodd" clip-rule="evenodd" d="M10 14.5a2 2 0 1 1-4 0 2 2 0 0 1 4 0zm1.78-8.841a.75.75 0 0 0-1.06 0l-1.97 1.97V1.25a.75.75 0 0 0-1.5 0v6.379l-1.97-1.97a.75.75 0 0 0-1.06 1.06l3.25 3.25.53.531.53-.53 3.25-3.25a.75.75 0 0 0 0-1.061z" fill="currentColor"/></g><defs><clipPath id="clip0_16_1119"><path fill="#fff" transform="translate(0 .5)" d="M0 0h16v16H0z"/></clipPath></defs></g><g id="arrow-right-svg" fill="none" xmlns="http://www.w3.org/2000/svg"><g clip-path="url(#clip0_20_338)"><path fill-rule="evenodd" clip-rule="evenodd" d="M12.322 5.4a1.736 1.736 0 1 1 0 3.47 1.736 1.736 0 0 1 0-3.47zM4.65 3.853a.65.65 0 0 0 0 .92l1.71 1.71H.822a.65.65 0 0 0 0 1.302H6.36l-1.71 1.71a.65.65 0 0 0 .92.92l2.82-2.821.462-.46-.46-.46-2.82-2.82a.651.651 0 0 0-.921 0z" fill="currentColor"/></g><defs><clipPath id="clip0_20_338"><path fill="#fff" transform="rotate(-90 7.125 6.952)" d="M0 0h13.885v13.885H0z"/></clipPath></defs></g><g id="ios" fill="none" xmlns="http://www.w3.org/2000/svg"><g clip-path="url(#clip0_17_53)"><path d="M21.792 18.703a13.05 13.05 0 0 1-1.29 2.32c-.679.968-1.234 1.637-1.662 2.01-.664.61-1.375.922-2.137.94-.546 0-1.206-.155-1.973-.471-.77-.314-1.478-.47-2.124-.47-.679 0-1.407.156-2.185.47-.78.316-1.407.48-1.888.496-.73.031-1.458-.29-2.184-.966-.464-.404-1.044-1.098-1.739-2.08-.745-1.049-1.358-2.265-1.838-3.651C2.258 15.803 2 14.353 2 12.948c0-1.608.348-2.995 1.044-4.158A6.122 6.122 0 0 1 5.23 6.58a5.88 5.88 0 0 1 2.955-.835c.58 0 1.34.18 2.285.532.943.354 1.548.534 1.813.534.199 0 .871-.21 2.01-.628 1.078-.388 1.988-.549 2.733-.486 2.02.163 3.536.96 4.545 2.393-1.806 1.095-2.699 2.627-2.681 4.593.016 1.531.572 2.806 1.663 3.818.495.47 1.048.832 1.663 1.09-.134.387-.274.757-.424 1.112zM17.161.48c0 1.2-.439 2.321-1.313 3.359-1.054 1.233-2.33 1.945-3.714 1.833a3.743 3.743 0 0 1-.027-.455c0-1.152.501-2.385 1.392-3.394.445-.51 1.01-.935 1.696-1.273.685-.334 1.332-.518 1.94-.55.019.16.026.321.026.48z" fill="currentColor"/></g><defs><clipPath id="clip0_17_53"><path fill="#fff" d="M0 0h24v24H0z"/></clipPath></defs></g><g id="docuemt-svg" fill="none" xmlns="http://www.w3.org/2000/svg" stroke="#fff" stroke-width="1.5" stroke-linejoin="round"><path d="M19.5 10.371V19.5a2.25 2.25 0 0 1-2.25 2.25H6.75A2.25 2.25 0 0 1 4.5 19.5v-15a2.25 2.25 0 0 1 2.25-2.25h4.629a1.5 1.5 0 0 1 1.06.44l6.622 6.62a1.5 1.5 0 0 1 .439 1.061z"/><path d="M12 2.625V8.25a1.5 1.5 0 0 0 1.5 1.5h5.625M8.25 13.5h7.5m-7.5 3.75h7.5" stroke-linecap="round"/></g><g id="android" xmlns="http://www.w3.org/2000/svg"><path fill="currentColor" d="M24 19H0a13.6 13.6 0 0 1 2.21-6.07A11.2 11.2 0 0 1 5.87 9.4l.41-.23-2.02-3.41a.51.51 0 0 1 .17-.7.5.5 0 0 1 .69.18l2.08 3.5a12.62 12.62 0 0 1 4.84-.9 12.2 12.2 0 0 1 4.75.9l2.07-3.5a.5.5 0 0 1 .7-.17.51.51 0 0 1 .16.7L17.7 9.19l.5.28a11.38 11.38 0 0 1 3.63 3.62A14.48 14.48 0 0 1 24 19zm-7.5-4.48a1 1 0 0 0 1 1 1 1 0 0 0 1-1 1 1 0 0 0-1-1 1 1 0 0 0-1 1zm-11 0a1 1 0 0 0 1 1 1 1 0 0 0 1-1 1 1 0 0 0-1-1 1 1 0 0 0-1 1z"/></g></defs></svg>